<svg xmlns="http://www.w3.org/2000/svg" viewBox="0 0 180 96" role="img" aria-labelledby="title desc">
  <title id="title">Logo RER par dťfaut</title>
  <desc id="desc">Logo de secours utilisť tant quaucun logo personnalisť na ťtť importť.</desc>
  <rect x="2" y="2" width="176" height="92" rx="12" fill="#ffffff" stroke="#d9dde6" stroke-width="4"/>
  <path d="M24 66V30h24c15 0 24 6 24 17 0 8-4 13-11 16l14 9H57L44 60h-8v6H24zm12-16h11c8 0 13-3 13-9s-5-9-13-9H36v18z" fill="#243b8f"/>
  <path d="M84 66V30h16l18 23V30h12v36h-14l-20-25v25H84z" fill="#111827"/>
  <path d="M140 66V30h16c14 0 22 6 22 18s-8 18-22 18h-16zm12-10h4c7 0 11-3 11-8s-4-8-11-8h-4v16z" fill="#243b8f"/>
</svg>
